  <svg width="84" height="84" class="service-img" viewBox="0 0 84 84" fill="none" xmlns="http://www.w3.org/2000/svg">
                            <g filter="url(#filter0_d_402_710)">
                            <circle cx="42" cy="42" r="18" fill="white"/>
                            </g>
                            <g clip-path="url(#clip0_402_710)">
                            <path d="M32.1 34.8V40.2H37.5" stroke="#18A94A" stroke-width="2" stroke-linecap="round" stroke-linejoin="round"/>
                            <path d="M34.359 44.7001C34.9425 46.3564 36.0486 47.7782 37.5105 48.7513C38.9724 49.7244 40.7109 50.196 42.4641 50.0951C44.2174 49.9942 45.8903 49.3262 47.2309 48.1918C48.5715 47.0575 49.5071 45.5181 49.8968 43.8058C50.2864 42.0934 50.1091 40.3008 49.3913 38.698C48.6736 37.0953 47.4545 35.7692 45.9175 34.9195C44.3806 34.0699 42.6092 33.7428 40.8702 33.9875C39.1312 34.2321 37.5188 35.0353 36.276 36.2761L32.1 40.2001" stroke="#18A94A" stroke-width="2" stroke-linecap="round" stroke-linejoin="round"/>
                            </g>
                            <defs>
                            <filter id="filter0_d_402_710" x="0" y="0" width="84" height="84" filterUnits="userSpaceOnUse" color-interpolation-filters="sRGB">
                            <feFlood flood-opacity="0" result="BackgroundImageFix"/>
                            <feColorMatrix in="SourceAlpha" type="matrix" values="0 0 0 0 0 0 0 0 0 0 0 0 0 0 0 0 0 0 127 0" result="hardAlpha"/>
                            <feOffset/>
                            <feGaussianBlur stdDeviation="12"/>
                            <feComposite in2="hardAlpha" operator="out"/>
                            <feColorMatrix type="matrix" values="0 0 0 0 0.0901961 0 0 0 0 0.137255 0 0 0 0 0.152941 0 0 0 0.12 0"/>
                            <feBlend mode="normal" in2="BackgroundImageFix" result="effect1_dropShadow_402_710"/>
                            <feBlend mode="normal" in="SourceGraphic" in2="effect1_dropShadow_402_710" result="shape"/>
                            </filter>
                            <clipPath id="clip0_402_710">
                            <rect width="21.6" height="21.6" fill="white" transform="translate(31.2 31.2)"/>
                            </clipPath>
                            </defs>
                            </svg>