<svg width="48" height="48" viewBox="0 0 48 48" fill="none" xmlns="http://www.w3.org/2000/svg">
<circle cx="24" cy="24" r="24" fill="#DADADA"/>
<g clip-path="url(#clip0_402_609)">
<path d="M23.8785 19.9573C21.6425 19.9573 19.839 21.7608 19.839 23.9968C19.839 26.2327 21.6425 28.0362 23.8785 28.0362C26.1144 28.0362 27.9179 26.2327 27.9179 23.9968C27.9179 21.7608 26.1144 19.9573 23.8785 19.9573ZM23.8785 26.6229C22.4335 26.6229 21.2523 25.4452 21.2523 23.9968C21.2523 22.5483 22.43 21.3706 23.8785 21.3706C25.3269 21.3706 26.5046 22.5483 26.5046 23.9968C26.5046 25.4452 25.3234 26.6229 23.8785 26.6229ZM29.0253 19.7921C29.0253 20.3159 28.6035 20.7343 28.0832 20.7343C27.5593 20.7343 27.141 20.3124 27.141 19.7921C27.141 19.2718 27.5628 18.8499 28.0832 18.8499C28.6035 18.8499 29.0253 19.2718 29.0253 19.7921ZM31.7007 20.7483C31.641 19.4862 31.3527 18.3683 30.4281 17.4472C29.507 16.5261 28.389 16.2378 27.1269 16.1745C25.8261 16.1007 21.9273 16.1007 20.6265 16.1745C19.3679 16.2343 18.25 16.5226 17.3253 17.4437C16.4007 18.3647 16.116 19.4827 16.0527 20.7448C15.9789 22.0456 15.9789 25.9444 16.0527 27.2452C16.1125 28.5073 16.4007 29.6253 17.3253 30.5464C18.25 31.4675 19.3644 31.7558 20.6265 31.819C21.9273 31.8929 25.8261 31.8929 27.1269 31.819C28.389 31.7593 29.507 31.471 30.4281 30.5464C31.3492 29.6253 31.6375 28.5073 31.7007 27.2452C31.7746 25.9444 31.7746 22.0491 31.7007 20.7483ZM30.0203 28.6409C29.746 29.33 29.2152 29.8608 28.5226 30.1386C27.4855 30.5499 25.0246 30.455 23.8785 30.455C22.7324 30.455 20.2679 30.5464 19.2343 30.1386C18.5453 29.8644 18.0144 29.3335 17.7367 28.6409C17.3253 27.6038 17.4203 25.1429 17.4203 23.9968C17.4203 22.8507 17.3289 20.3862 17.7367 19.3526C18.0109 18.6636 18.5417 18.1327 19.2343 17.855C20.2714 17.4437 22.7324 17.5386 23.8785 17.5386C25.0246 17.5386 27.489 17.4472 28.5226 17.855C29.2117 18.1292 29.7425 18.6601 30.0203 19.3526C30.4316 20.3897 30.3367 22.8507 30.3367 23.9968C30.3367 25.1429 30.4316 27.6073 30.0203 28.6409Z" fill="#172327"/>
</g>
<defs>
<clipPath id="clip0_402_609">
<rect width="15.75" height="18" fill="white" transform="translate(16 15)"/>
</clipPath>
</defs>
</svg>
