<svg width="48" height="48" viewBox="0 0 48 48" fill="none" xmlns="http://www.w3.org/2000/svg">
<circle cx="24" cy="24" r="24" fill="#DADADA"/>
<path d="M31.1497 20.3338C31.1612 20.4937 31.1612 20.6536 31.1612 20.8135C31.1612 25.6904 27.4493 31.3097 20.665 31.3097C18.5749 31.3097 16.6333 30.7043 15 29.6536C15.297 29.6879 15.5825 29.6993 15.8909 29.6993C17.6154 29.6993 19.203 29.1168 20.4708 28.1232C18.849 28.0889 17.4898 27.0267 17.0216 25.5648C17.25 25.599 17.4784 25.6219 17.7183 25.6219C18.0495 25.6219 18.3807 25.5762 18.6891 25.4963C16.9987 25.1536 15.7309 23.6688 15.7309 21.8757V21.83C16.222 22.1041 16.7931 22.2755 17.3984 22.2983C16.4048 21.6358 15.7538 20.5051 15.7538 19.2259C15.7538 18.5407 15.9365 17.9125 16.2563 17.3643C18.0723 19.6028 20.802 21.0647 23.8629 21.2247C23.8058 20.9506 23.7715 20.6651 23.7715 20.3795C23.7715 18.3465 25.4162 16.6904 27.4606 16.6904C28.5228 16.6904 29.4822 17.1359 30.156 17.8554C30.9898 17.6955 31.7893 17.3871 32.4974 16.9645C32.2233 17.8212 31.6408 18.5407 30.8756 18.9975C31.618 18.9176 32.3375 18.712 32.9999 18.4265C32.4975 19.1574 31.8693 19.8084 31.1497 20.3338Z" fill="#172327"/>
</svg>
